<?xml version="1.0" encoding="utf-8"?>
<!-- Generator: Adobe Illustrator 16.0.4, SVG Export Plug-In . SVG Version: 6.00 Build 0)  -->
<!DOCTYPE svg PUBLIC "-//W3C//DTD SVG 1.1//EN" "http://www.w3.org/Graphics/SVG/1.1/DTD/svg11.dtd">
<svg version="1.1" id="Layer_1" xmlns="http://www.w3.org/2000/svg" xmlns:xlink="http://www.w3.org/1999/xlink" x="0px" y="0px"
	 width="3151.322px" height="612px" viewBox="0 0 3151.322 612" enable-background="new 0 0 3151.322 612" xml:space="preserve">
<g>
	<g>
		<linearGradient id="SVGID_1_" gradientUnits="userSpaceOnUse" x1="201.1611" y1="402.0869" x2="383.1613" y2="75.0864">
			<stop  offset="0" style="stop-color:#D8D9DA"/>
			<stop  offset="1" style="stop-color:#67686B"/>
		</linearGradient>
		<polyline fill="url(#SVGID_1_)" points="310,70.762 68,532.762 204,532.762 383.334,191.429 		"/>
		<polygon fill="#DBDCDE" points="569.189,331.834 664,532.762 304.984,532.762 251.984,443.429 486.166,443.429 458.213,384.297 		
			"/>
		<g>
			<linearGradient id="SVGID_2_" gradientUnits="userSpaceOnUse" x1="486.1631" y1="290.8994" x2="358.9321" y2="39.5657">
				<stop  offset="0" style="stop-color:#808285"/>
				<stop  offset="1" style="stop-color:#FFFFFF"/>
			</linearGradient>
			<polygon fill="url(#SVGID_2_)" points="516.782,220.292 446,70.762 310,70.762 405.722,272.792 			"/>
		</g>
	</g>
	<g>
		<path fill="#DBDCDE" d="M1006.999,87.439h85.968l171.276,445.322h-88.096l-34.843-91.729H959.593l-36.229,91.729h-88.096
			L1006.999,87.439z M1050.513,205.506l-59.747,152.881h119.14L1050.513,205.506z"/>
		<path fill="#DBDCDE" d="M1532.799,76.238h82.646v456.523h-82.646v-34.814c-16.13,15.34-32.308,26.391-48.532,33.149
			c-16.229,6.759-33.816,10.142-52.766,10.142c-42.534,0-79.326-16.499-110.37-49.497c-31.045-32.998-46.564-74.019-46.564-123.062
			c0-50.859,15.019-92.533,45.056-125.029c30.037-32.492,66.521-48.74,109.462-48.74c19.753,0,38.296,3.736,55.632,11.201
			c17.337,7.469,33.362,18.67,48.083,33.604V76.238z M1445.919,271.199c-25.548,0-46.768,9.035-63.664,27.095
			c-16.896,18.065-25.345,41.224-25.345,69.478c0,28.457,8.595,51.871,25.794,70.234c17.199,18.367,38.367,27.549,63.513,27.549
			c25.95,0,47.473-9.029,64.567-27.095c17.095-18.06,25.647-41.726,25.647-70.991c0-28.656-8.553-51.867-25.647-69.629
			C1493.689,280.082,1472.067,271.199,1445.919,271.199z"/>
		<path fill="#DBDCDE" d="M1942.096,203.387h82.646v329.375h-82.646v-34.814c-16.13,15.34-32.308,26.391-48.532,33.149
			c-16.229,6.759-33.816,10.142-52.766,10.142c-42.534,0-79.326-16.499-110.37-49.497c-31.045-32.998-46.564-74.019-46.564-123.062
			c0-50.859,15.019-92.533,45.056-125.029c30.037-32.492,66.521-48.74,109.462-48.74c19.753,0,38.296,3.736,55.632,11.201
			c17.337,7.469,33.362,18.67,48.083,33.604V203.387z M1855.216,271.199c-25.548,0-46.768,9.035-63.664,27.095
			c-16.896,18.065-25.345,41.224-25.345,69.478c0,28.457,8.595,51.871,25.794,70.234c17.199,18.367,38.367,27.549,63.513,27.549
			c25.95,0,47.473-9.029,64.567-27.095c17.095-18.06,25.647-41.726,25.647-70.991c0-28.656-8.553-51.867-25.647-69.629
			C1902.986,280.082,1881.364,271.199,1855.216,271.199z"/>
		<path fill="#DBDCDE" d="M2107.691,203.387h82.646v37.842c14.134-15.539,29.838-27.143,47.108-34.814
			c17.266-7.668,36.101-11.504,56.503-11.504c20.595,0,39.175,5.047,55.74,15.137c16.561,10.094,29.891,24.824,39.989,44.199
			c13.127-19.375,29.233-34.105,48.319-44.199c19.087-10.09,39.942-15.137,62.562-15.137c23.424,0,44.023,5.449,61.8,16.348
			c17.771,10.898,30.548,25.127,38.324,42.686s11.665,46.119,11.665,85.674v193.145h-83.252V365.652
			c0-37.336-4.646-62.613-13.926-75.835c-9.285-13.216-23.211-19.829-41.777-19.829c-14.129,0-26.792,4.039-37.993,12.109
			c-11.201,8.074-19.526,19.224-24.976,33.452s-8.174,37.085-8.174,68.569v148.643H2319V373.221c0-29.465-2.176-50.807-6.523-64.028
			c-4.352-13.216-10.874-23.056-19.573-29.517c-8.699-6.457-19.219-9.688-31.56-9.688c-13.756,0-26.248,4.087-37.479,12.261
			c-11.229,8.174-19.62,19.63-25.184,34.36c-5.562,14.734-8.344,37.945-8.344,69.629v146.523h-82.646V203.387z"/>
		<path fill="#DBDCDE" d="M2934.156,203.387h82.646v329.375h-82.646v-34.814c-16.13,15.34-32.308,26.391-48.532,33.149
			c-16.229,6.759-33.816,10.142-52.766,10.142c-42.534,0-79.326-16.499-110.37-49.497c-31.045-32.998-46.564-74.019-46.564-123.062
			c0-50.859,15.019-92.533,45.056-125.029c30.037-32.492,66.521-48.74,109.462-48.74c19.753,0,38.296,3.736,55.632,11.201
			c17.337,7.469,33.362,18.67,48.083,33.604V203.387z M2847.276,271.199c-25.548,0-46.768,9.035-63.664,27.095
			c-16.896,18.065-25.345,41.224-25.345,69.478c0,28.457,8.595,51.871,25.794,70.234c17.199,18.367,38.367,27.549,63.513,27.549
			c25.95,0,47.473-9.029,64.567-27.095c17.095-18.06,25.647-41.726,25.647-70.991c0-28.656-8.553-51.867-25.647-69.629
			C2895.047,280.082,2873.425,271.199,2847.276,271.199z"/>
	</g>
</g>
</svg>
