<?xml version="1.0" encoding="utf-8"?>
<!-- Generator: Adobe Illustrator 16.0.4, SVG Export Plug-In . SVG Version: 6.00 Build 0)  -->
<!DOCTYPE svg PUBLIC "-//W3C//DTD SVG 1.1//EN" "http://www.w3.org/Graphics/SVG/1.1/DTD/svg11.dtd">
<svg version="1.1" id="Layer_1" xmlns="http://www.w3.org/2000/svg" xmlns:xlink="http://www.w3.org/1999/xlink" x="0px" y="0px"
	 width="3151.322px" height="612px" viewBox="0 0 3151.322 612" enable-background="new 0 0 3151.322 612" xml:space="preserve">
<g>
	<g>
		<linearGradient id="SVGID_1_" gradientUnits="userSpaceOnUse" x1="201.1602" y1="395.3252" x2="383.1603" y2="68.3247">
			<stop  offset="0" style="stop-color:#007E66"/>
			<stop  offset="1" style="stop-color:#004A3A"/>
		</linearGradient>
		<polyline fill="url(#SVGID_1_)" points="310,64 68,526 204,526 383.334,184.667 		"/>
		<polygon fill="#61C462" points="569.189,325.072 664,526 304.984,526 251.984,436.667 486.166,436.667 458.213,377.535 		"/>
		<g>
			<linearGradient id="SVGID_2_" gradientUnits="userSpaceOnUse" x1="486.1641" y1="284.1377" x2="358.9331" y2="32.804">
				<stop  offset="0" style="stop-color:#6E99D4"/>
				<stop  offset="1" style="stop-color:#C0C4E3"/>
			</linearGradient>
			<polygon fill="url(#SVGID_2_)" points="516.782,213.53 446,64 310,64 405.722,266.03 			"/>
		</g>
	</g>
	<g>
		<path fill="#007E66" d="M1006.999,80.678h85.968L1264.243,526h-88.096l-34.843-91.729H959.593L923.364,526h-88.096
			L1006.999,80.678z M1050.513,198.744l-59.747,152.881h119.14L1050.513,198.744z"/>
		<path fill="#007E66" d="M1532.799,69.477h82.646V526h-82.646v-34.814c-16.13,15.34-32.308,26.391-48.532,33.149
			c-16.229,6.759-33.816,10.142-52.766,10.142c-42.534,0-79.326-16.499-110.37-49.497c-31.045-32.998-46.564-74.019-46.564-123.062
			c0-50.859,15.019-92.533,45.056-125.029c30.037-32.492,66.521-48.74,109.462-48.74c19.753,0,38.296,3.736,55.632,11.201
			c17.337,7.469,33.362,18.67,48.083,33.604V69.477z M1445.919,264.438c-25.548,0-46.768,9.035-63.664,27.095
			c-16.896,18.065-25.345,41.224-25.345,69.478c0,28.457,8.595,51.871,25.794,70.234c17.199,18.367,38.367,27.549,63.513,27.549
			c25.95,0,47.473-9.029,64.567-27.095c17.095-18.06,25.647-41.726,25.647-70.991c0-28.656-8.553-51.867-25.647-69.629
			C1493.689,273.32,1472.067,264.438,1445.919,264.438z"/>
		<path fill="#007E66" d="M1942.096,196.625h82.646V526h-82.646v-34.814c-16.13,15.34-32.308,26.391-48.532,33.149
			c-16.229,6.759-33.816,10.142-52.766,10.142c-42.534,0-79.326-16.499-110.37-49.497c-31.045-32.998-46.564-74.019-46.564-123.062
			c0-50.859,15.019-92.533,45.056-125.029c30.037-32.492,66.521-48.74,109.462-48.74c19.753,0,38.296,3.736,55.632,11.201
			c17.337,7.469,33.362,18.67,48.083,33.604V196.625z M1855.216,264.438c-25.548,0-46.768,9.035-63.664,27.095
			c-16.896,18.065-25.345,41.224-25.345,69.478c0,28.457,8.595,51.871,25.794,70.234c17.199,18.367,38.367,27.549,63.513,27.549
			c25.95,0,47.473-9.029,64.567-27.095c17.095-18.06,25.647-41.726,25.647-70.991c0-28.656-8.553-51.867-25.647-69.629
			C1902.986,273.32,1881.364,264.438,1855.216,264.438z"/>
		<path fill="#007E66" d="M2107.691,196.625h82.646v37.842c14.134-15.539,29.838-27.143,47.108-34.814
			c17.266-7.668,36.101-11.504,56.503-11.504c20.595,0,39.175,5.047,55.74,15.137c16.561,10.094,29.891,24.824,39.989,44.199
			c13.127-19.375,29.233-34.105,48.319-44.199c19.087-10.09,39.942-15.137,62.562-15.137c23.424,0,44.023,5.449,61.8,16.348
			c17.771,10.898,30.548,25.127,38.324,42.686s11.665,46.119,11.665,85.674V526h-83.252V358.891
			c0-37.336-4.646-62.613-13.926-75.835c-9.285-13.216-23.211-19.829-41.777-19.829c-14.129,0-26.792,4.039-37.993,12.109
			c-11.201,8.074-19.526,19.224-24.976,33.452s-8.174,37.085-8.174,68.569V526H2319V366.459c0-29.465-2.176-50.807-6.523-64.028
			c-4.352-13.216-10.874-23.056-19.573-29.517c-8.699-6.457-19.219-9.688-31.56-9.688c-13.756,0-26.248,4.087-37.479,12.261
			c-11.229,8.174-19.62,19.63-25.184,34.36c-5.562,14.734-8.344,37.945-8.344,69.629V526h-82.646V196.625z"/>
		<path fill="#007E66" d="M2934.156,196.625h82.646V526h-82.646v-34.814c-16.13,15.34-32.308,26.391-48.532,33.149
			c-16.229,6.759-33.816,10.142-52.766,10.142c-42.534,0-79.326-16.499-110.37-49.497c-31.045-32.998-46.564-74.019-46.564-123.062
			c0-50.859,15.019-92.533,45.056-125.029c30.037-32.492,66.521-48.74,109.462-48.74c19.753,0,38.296,3.736,55.632,11.201
			c17.337,7.469,33.362,18.67,48.083,33.604V196.625z M2847.276,264.438c-25.548,0-46.768,9.035-63.664,27.095
			c-16.896,18.065-25.345,41.224-25.345,69.478c0,28.457,8.595,51.871,25.794,70.234c17.199,18.367,38.367,27.549,63.513,27.549
			c25.95,0,47.473-9.029,64.567-27.095c17.095-18.06,25.647-41.726,25.647-70.991c0-28.656-8.553-51.867-25.647-69.629
			C2895.047,273.32,2873.425,264.438,2847.276,264.438z"/>
	</g>
</g>
</svg>
